<svg xmlns="http://www.w3.org/2000/svg" viewBox="0 0 48 48"><path fill="#FFC107" d="M43.611 20.083H42V20H24v8h11.303C33.919 31.91 29.369 35 24 35 16.82 35 11 29.18 11 22S16.82 9 24 9c3.59 0 6.841 1.37 9.311 3.589l5.657-5.657C35.846 3.053 30.195 1 24 1 10.745 1 0 11.745 0 25s10.745 24 24 24 24-10.745 24-24c0-1.627-.168-3.217-.389-4.917z"/><path fill="#FF3D00" d="M6.306 14.691l6.571 4.819C14.269 16.087 18.79 13 24 13c3.59 0 6.841 1.37 9.311 3.589l5.657-5.657C35.846 3.053 30.195 1 24 1 14.317 1 6.002 6.486 2.042 14.084l4.264.607z"/><path fill="#4CAF50" d="M24 49c6.083 0 11.65-2.323 15.823-6.104l-7.317-5.994C30.9 38.857 27.62 40 24 40c-5.334 0-9.868-3.414-11.486-8.177l-6.57 5.058C9.867 43.525 16.464 49 24 49z"/><path fill="#1976D2" d="M43.611 20.083H42V20H24v8h11.303C34.545 31.91 29.995 35 24 35c-5.334 0-9.868-3.414-11.486-8.177l-6.57 5.058C9.867 43.525 16.464 49 24 49c13.255 0 24-10.745 24-24 0-1.627-.168-3.217-.389-4.917z"/></svg>
